<?xml version="1.0" encoding="UTF-8" standalone="no"?>
<svg width="273.756mm" height="63.5mm"
 xmlns="http://www.w3.org/2000/svg" xmlns:xlink="http://www.w3.org/1999/xlink"  version="1.2" baseProfile="tiny">
<title>Qt SVG Document</title>
<desc>Generated with Qt</desc>
<defs>
</defs>
<g fill="none" stroke="black" stroke-width="1" fill-rule="evenodd" stroke-linecap="square" stroke-linejoin="bevel" >

<g fill="none" stroke="#000000" stroke-opacity="1" stroke-width="1" stroke-linecap="square" stroke-linejoin="bevel" transform="matrix(1,0,0,1,0,0)"
font-family="Sans Serif" font-size="9" font-weight="400" font-style="normal" 
>
</g>

<g fill="none" stroke="#000000" stroke-opacity="1" stroke-width="1" stroke-linecap="square" stroke-linejoin="bevel" transform="matrix(1,0,0,1,0,0)"
font-family="Sans Serif" font-size="9" font-weight="400" font-style="normal" 
>
</g>

<g fill="none" stroke="#000000" stroke-opacity="1" stroke-width="1" stroke-linecap="square" stroke-linejoin="bevel" transform="matrix(1.99962,0,0,1.99962,-0.00119977,179.966)"
font-family="Sans Serif" font-size="9" font-weight="400" font-style="normal" 
>
</g>

<g fill="#ffffff" fill-opacity="1" stroke="none" transform="matrix(1.99962,0,0,1.99962,-0.00119977,179.966)"
font-family="Sans Serif" font-size="9" font-weight="400" font-style="normal" 
>
<rect x="0.0006" y="-90" width="388.074" height="90"/>
</g>

<g fill="none" stroke="#000000" stroke-opacity="1" stroke-width="1" stroke-linecap="square" stroke-linejoin="bevel" transform="matrix(1.99962,0,0,1.99962,-0.00119977,179.966)"
font-family="Sans Serif" font-size="9" font-weight="400" font-style="normal" 
>
</g>

<g fill="none" stroke="#000000" stroke-opacity="1" stroke-width="1" stroke-linecap="square" stroke-linejoin="bevel" transform="matrix(1.99962,0,0,1.99962,-0.00119977,179.966)"
font-family="Sans Serif" font-size="9" font-weight="400" font-style="normal" 
>
</g>

<g fill="none" stroke="#000000" stroke-opacity="1" stroke-width="1" stroke-linecap="square" stroke-linejoin="bevel" transform="matrix(1.99962,0,0,1.99962,-0.00119977,179.966)"
font-family="Sans Serif" font-size="9" font-weight="400" font-style="normal" 
>
</g>

<g fill="none" stroke="#000000" stroke-opacity="1" stroke-width="1" stroke-linecap="square" stroke-linejoin="bevel" transform="matrix(1.99962,0,0,1.99962,-0.00119977,179.966)"
font-family="Sans Serif" font-size="9" font-weight="400" font-style="normal" 
>
</g>

<g fill="none" stroke="#000000" stroke-opacity="1" stroke-width="1" stroke-linecap="square" stroke-linejoin="round" transform="matrix(1.99962,0,0,1.99962,-0.00119977,179.966)"
font-family="Sans Serif" font-size="9" font-weight="400" font-style="normal" 
>
<ellipse cx="77.343" cy="-72" rx="53.446" ry="17.5"/>
</g>

<g fill="none" stroke="#000000" stroke-opacity="1" stroke-width="1" stroke-linecap="square" stroke-linejoin="bevel" transform="matrix(1.99962,0,0,1.99962,-0.00119977,179.966)"
font-family="Sans Serif" font-size="9" font-weight="400" font-style="normal" 
>
</g>

<g fill="none" stroke="#000000" stroke-opacity="1" stroke-width="1" stroke-linecap="square" stroke-linejoin="bevel" transform="matrix(1.99962,0,0,1.99962,103.884,22.9956)"
font-family="Sans Serif" font-size="9" font-weight="400" font-style="normal" 
>
</g>

<g fill="none" stroke="#000000" stroke-opacity="1" stroke-width="1" stroke-linecap="square" stroke-linejoin="bevel" transform="matrix(1.99962,0,0,1.99962,103.884,22.9956)"
font-family="sans" font-size="11" font-weight="100" font-style="normal" 
>
</g>

<g fill="#000000" fill-opacity="1" stroke="#000000" stroke-opacity="1" stroke-width="1" stroke-linecap="square" stroke-linejoin="round" transform="matrix(1.99962,0,0,1.99962,103.884,22.9956)"
font-family="sans" font-size="11" font-weight="100" font-style="normal" 
>
<path vector-effect="none" fill-rule="nonzero" d="M2.96875,1.98438 L3.53125,1.98438 L0.734375,11.0156 L0.171875,11.0156 L2.96875,1.98438 M8.35938,4.15625 L8.35938,4.70312 C8.00521,4.50521 7.78646,4.39583 7.70312,4.375 C7.45312,4.32292 7.14062,4.29167 6.76562,4.28125 C6.20312,4.28125 5.76042,4.39062 5.4375,4.60938 C5.1875,4.79688 5.0625,5.11458 5.0625,5.5625 C5.0625,5.875 5.18229,6.11458 5.42188,6.28125 C5.66146,6.46875 6.01042,6.61458 6.46875,6.71875 L6.8125,6.78125 C7.38542,6.90625 7.81771,7.08333 8.10938,7.3125 C8.45312,7.58333 8.63021,7.92708 8.64062,8.34375 C8.64062,8.90625 8.47396,9.34896 8.14062,9.67188 C7.78646,9.99479 7.20833,10.1562 6.40625,10.1562 C5.96875,10.1562 5.63542,10.125 5.40625,10.0625 C5.125,9.98958 4.83333,9.89583 4.53125,9.78125 L4.53125,9.15625 C4.96875,9.40625 5.25,9.55208 5.375,9.59375 C5.72917,9.6875 6.08333,9.73438 6.4375,9.73438 C7.01042,9.73438 7.4375,9.61458 7.71875,9.375 C8,9.125 8.14062,8.80729 8.14062,8.42188 C8.14062,8.08854 8.04688,7.84896 7.85938,7.70312 C7.58854,7.48438 7.16146,7.30729 6.57812,7.17188 L6.23438,7.09375 C5.72396,6.96875 5.33854,6.80208 5.07812,6.59375 C4.74479,6.32292 4.57812,5.99479 4.57812,5.60938 C4.57812,4.98438 4.77865,4.53385 5.17969,4.25781 C5.58073,3.98177 6.07292,3.84375 6.65625,3.84375 C7.15625,3.84375 7.5,3.86979 7.6875,3.92188 C7.91667,3.98438 8.14062,4.0625 8.35938,4.15625 M11.1875,2.28125 L11.1875,3.98438 L13.2188,3.98438 L13.2188,4.40625 L11.1875,4.40625 L11.1875,8.01562 C11.1875,8.47396 11.2448,8.79688 11.3594,8.98438 C11.6094,9.38021 11.9688,9.57812 12.4375,9.57812 L13.2188,9.57812 L13.2188,10 L12.4531,10 C11.9635,10 11.5469,9.85677 11.2031,9.57031 C10.8594,9.28385 10.6875,8.76562 10.6875,8.01562 L10.6875,4.40625 L9.96875,4.40625 L9.96875,3.98438 L10.6875,3.98438 L10.6875,2.28125 L11.1875,2.28125 M17.3906,6.60938 C16.5885,6.60938 16.013,6.75 15.6641,7.03125 C15.3151,7.3125 15.1406,7.72396 15.1406,8.26562 C15.1406,8.79688 15.2865,9.17448 15.5781,9.39844 C15.8698,9.6224 16.2135,9.73438 16.6094,9.73438 C17.3594,9.73438 17.901,9.41667 18.2344,8.78125 C18.5677,8.13542 18.7344,7.53125 18.7344,6.96875 L18.7344,6.60938 L17.3906,6.60938 M19.2344,6.5625 L19.2344,10 L18.7344,10 L18.7344,8.35938 C18.4635,9.16146 18.099,9.67188 17.6406,9.89062 C17.2865,10.0677 16.9271,10.1562 16.5625,10.1562 C15.9688,10.1562 15.5,9.99479 15.1562,9.67188 C14.8125,9.34896 14.6406,8.8776 14.6406,8.25781 C14.6406,7.63802 14.8646,7.14062 15.3125,6.76562 C15.7604,6.39062 16.4896,6.20312 17.5,6.20312 L18.7344,6.20312 L18.7344,6.10938 C18.7344,5.57812 18.5781,5.14062 18.2656,4.79688 C17.974,4.45312 17.4792,4.28125 16.7812,4.28125 C16.4375,4.28125 16.0885,4.34375 15.7344,4.46875 C15.5052,4.55208 15.2031,4.71875 14.8281,4.96875 L14.8281,4.4375 C15.151,4.23958 15.4531,4.09896 15.7344,4.01562 C16.1302,3.90104 16.5104,3.84375 16.875,3.84375 C17.5938,3.84375 18.1823,4.05729 18.6406,4.48438 C19.0365,4.84896 19.2344,5.54167 19.2344,6.5625 M25.7188,6.92188 C25.7188,6.08854 25.5495,5.44271 25.2109,4.98438 C24.8724,4.52604 24.3958,4.29688 23.7812,4.29688 C23.1771,4.29688 22.7057,4.52604 22.3672,4.98438 C22.0286,5.44271 21.8594,6.08854 21.8594,6.92188 C21.8594,7.75521 22.0286,8.40104 22.3672,8.85938 C22.7057,9.31771 23.1771,9.54688 23.7812,9.54688 C24.3958,9.54688 24.8724,9.31771 25.2109,8.85938 C25.5495,8.40104 25.7188,7.75521 25.7188,6.92188 M26.2031,9.25 C26.2031,10.5 25.9661,11.3177 25.4922,11.7031 C25.0182,12.0885 24.4167,12.2812 23.6875,12.2812 C23.3333,12.2812 23.0052,12.2604 22.7031,12.2188 C22.3906,12.1562 22.0885,12.0729 21.7969,11.9688 L21.7969,11.4062 C22.0885,11.5625 22.375,11.6797 22.6562,11.7578 C22.9375,11.8359 23.2292,11.875 23.5312,11.875 C24.125,11.875 24.638,11.7474 25.0703,11.4922 C25.5026,11.237 25.7188,10.5521 25.7188,9.4375 L25.7188,8.48438 C25.5625,8.90104 25.3594,9.22917 25.1094,9.46875 C24.7135,9.82292 24.2708,10 23.7812,10 C23.0208,10 22.4271,9.73177 22,9.19531 C21.5729,8.65885 21.3594,7.90104 21.3594,6.92188 C21.3594,5.94271 21.5729,5.1849 22,4.64844 C22.4271,4.11198 23.0208,3.84375 23.7812,3.84375 C24.2708,3.84375 24.6875,3.99479 25.0312,4.29688 C25.3021,4.53646 25.5312,4.85938 25.7188,5.26562 L25.7188,3.98438 L26.2031,3.98438 L26.2031,9.25 M33,6.75 L33,7.0625 L28.4375,7.0625 C28.4375,8.02083 28.625,8.69792 29,9.09375 C29.4167,9.52083 30.0312,9.73438 30.8438,9.73438 C31.0625,9.73438 31.349,9.6875 31.7031,9.59375 C32.0573,9.5 32.4115,9.35938 32.7656,9.17188 L32.7656,9.6875 C32.4115,9.84375 32.0495,9.96094 31.6797,10.0391 C31.3099,10.1172 31.0156,10.1562 30.7969,10.1562 C29.8698,10.1562 29.1719,9.90625 28.7031,9.40625 C28.1927,8.875 27.9375,8.09375 27.9375,7.0625 C27.9375,5.98958 28.1667,5.1875 28.625,4.65625 C29.1042,4.11458 29.7708,3.84375 30.625,3.84375 C31.4062,3.84375 32,4.10417 32.4062,4.625 C32.8021,5.16667 33,5.875 33,6.75 M32.5,6.64062 C32.5,5.79688 32.3073,5.18229 31.9219,4.79688 C31.6094,4.45312 31.1771,4.28125 30.625,4.28125 C30.0312,4.28125 29.5312,4.45833 29.125,4.8125 C28.75,5.14583 28.526,5.75521 28.4531,6.64062 L32.5,6.64062 M38.3438,4.40625 C38.2604,4.36458 38.151,4.33333 38.0156,4.3125 C37.8906,4.29167 37.7396,4.28125 37.5625,4.28125 C36.9479,4.28125 36.4427,4.50521 36.0469,4.95312 C35.724,5.31771 35.5625,5.94271 35.5625,6.82812 L35.5625,10 L35.0781,10 L35.0781,3.98438 L35.5625,3.98438 L35.5625,5.10938 C35.7292,4.78646 35.9583,4.51562 36.25,4.29688 C36.6458,3.99479 37.1146,3.84375 37.6562,3.84375 C37.8021,3.84375 37.9271,3.84896 38.0312,3.85938 C38.1354,3.85938 38.2396,3.86979 38.3438,3.89062 L38.3438,4.40625 M43.1719,5.01562 C42.8177,4.52604 42.3333,4.28125 41.7188,4.28125 C41.1042,4.28125 40.6198,4.52604 40.2656,5.01562 C39.9115,5.49479 39.7344,6.15104 39.7344,6.98438 C39.7344,7.83854 39.9115,8.51042 40.2656,9 C40.6198,9.48958 41.1042,9.73438 41.7188,9.73438 C42.3333,9.73438 42.8177,9.48958 43.1719,9 C43.526,8.5 43.7031,7.82812 43.7031,6.98438 C43.7031,6.16146 43.526,5.50521 43.1719,5.01562 M41.7188,3.84375 C42.4792,3.84375 43.0833,4.13021 43.5312,4.70312 C43.9792,5.27604 44.2031,6.03646 44.2031,6.98438 C44.2031,7.97396 43.9792,8.75521 43.5312,9.32812 C43.0833,9.90104 42.4792,10.1875 41.7188,10.1875 C40.9375,10.1875 40.3229,9.90104 39.875,9.32812 C39.4375,8.75521 39.2188,7.97396 39.2188,6.98438 C39.2188,6.02604 39.4427,5.26302 39.8906,4.69531 C40.3385,4.1276 40.9479,3.84375 41.7188,3.84375 M49.7188,4.15625 L49.7188,4.70312 C49.3646,4.50521 49.1458,4.39583 49.0625,4.375 C48.8125,4.32292 48.5,4.29167 48.125,4.28125 C47.5625,4.28125 47.1198,4.39062 46.7969,4.60938 C46.5469,4.79688 46.4219,5.11458 46.4219,5.5625 C46.4219,5.875 46.5417,6.11458 46.7812,6.28125 C47.0208,6.46875 47.3698,6.61458 47.8281,6.71875 L48.1719,6.78125 C48.7448,6.90625 49.1771,7.08333 49.4688,7.3125 C49.8125,7.58333 49.9896,7.92708 50,8.34375 C50,8.90625 49.8333,9.34896 49.5,9.67188 C49.1458,9.99479 48.5677,10.1562 47.7656,10.1562 C47.3281,10.1562 46.9948,10.125 46.7656,10.0625 C46.4844,9.98958 46.1927,9.89583 45.8906,9.78125 L45.8906,9.15625 C46.3281,9.40625 46.6094,9.55208 46.7344,9.59375 C47.0885,9.6875 47.4427,9.73438 47.7969,9.73438 C48.3698,9.73438 48.7969,9.61458 49.0781,9.375 C49.3594,9.125 49.5,8.80729 49.5,8.42188 C49.5,8.08854 49.4062,7.84896 49.2188,7.70312 C48.9479,7.48438 48.5208,7.30729 47.9375,7.17188 L47.5938,7.09375 C47.0833,6.96875 46.6979,6.80208 46.4375,6.59375 C46.1042,6.32292 45.9375,5.99479 45.9375,5.60938 C45.9375,4.98438 46.138,4.53385 46.5391,4.25781 C46.9401,3.98177 47.4323,3.84375 48.0156,3.84375 C48.5156,3.84375 48.8594,3.86979 49.0469,3.92188 C49.276,3.98438 49.5,4.0625 49.7188,4.15625 "/>
</g>

<g fill="none" stroke="#000000" stroke-opacity="1" stroke-width="1" stroke-linecap="square" stroke-linejoin="bevel" transform="matrix(1.99962,0,0,1.99962,103.884,22.9956)"
font-family="sans" font-size="11" font-weight="100" font-style="normal" 
>
</g>

<g fill="none" stroke="#000000" stroke-opacity="1" stroke-width="1" stroke-linecap="square" stroke-linejoin="bevel" transform="matrix(1.99962,0,0,1.99962,103.884,22.9956)"
font-family="Sans Serif" font-size="9" font-weight="400" font-style="normal" 
>
</g>

<g fill="none" stroke="#000000" stroke-opacity="1" stroke-width="1" stroke-linecap="square" stroke-linejoin="bevel" transform="matrix(1.99962,0,0,1.99962,-0.00119977,179.966)"
font-family="Sans Serif" font-size="9" font-weight="400" font-style="normal" 
>
</g>

<g fill="none" stroke="#000000" stroke-opacity="1" stroke-width="1" stroke-linecap="square" stroke-linejoin="bevel" transform="matrix(1.99962,0,0,1.99962,-0.00119977,179.966)"
font-family="Sans Serif" font-size="9" font-weight="400" font-style="normal" 
>
</g>

<g fill="none" stroke="#000000" stroke-opacity="1" stroke-width="1" stroke-linecap="square" stroke-linejoin="bevel" transform="matrix(1.99962,0,0,1.99962,-0.00119977,179.966)"
font-family="Sans Serif" font-size="9" font-weight="400" font-style="normal" 
>
</g>

<g fill="none" stroke="#000000" stroke-opacity="1" stroke-width="1" stroke-linecap="square" stroke-linejoin="round" transform="matrix(1.99962,0,0,1.99962,-0.00119977,179.966)"
font-family="Sans Serif" font-size="9" font-weight="400" font-style="normal" 
>
<ellipse cx="311.38" cy="-72" rx="76.1944" ry="17.5"/>
</g>

<g fill="none" stroke="#000000" stroke-opacity="1" stroke-width="1" stroke-linecap="square" stroke-linejoin="bevel" transform="matrix(1.99962,0,0,1.99962,-0.00119977,179.966)"
font-family="Sans Serif" font-size="9" font-weight="400" font-style="normal" 
>
</g>

<g fill="none" stroke="#000000" stroke-opacity="1" stroke-width="1" stroke-linecap="square" stroke-linejoin="bevel" transform="matrix(1.99962,0,0,1.99962,545.889,22.9956)"
font-family="Sans Serif" font-size="9" font-weight="400" font-style="normal" 
>
</g>

<g fill="none" stroke="#000000" stroke-opacity="1" stroke-width="1" stroke-linecap="square" stroke-linejoin="bevel" transform="matrix(1.99962,0,0,1.99962,545.889,22.9956)"
font-family="sans" font-size="11" font-weight="100" font-style="normal" 
>
</g>

<g fill="#000000" fill-opacity="1" stroke="#000000" stroke-opacity="1" stroke-width="1" stroke-linecap="square" stroke-linejoin="round" transform="matrix(1.99962,0,0,1.99962,545.889,22.9956)"
font-family="sans" font-size="11" font-weight="100" font-style="normal" 
>
<path vector-effect="none" fill-rule="nonzero" d="M2.96875,1.98438 L3.53125,1.98438 L0.734375,11.0156 L0.171875,11.0156 L2.96875,1.98438 M9.0625,4.28125 L9.0625,4.79688 C8.77083,4.61979 8.52604,4.5 8.32812,4.4375 C7.99479,4.33333 7.67708,4.28125 7.375,4.28125 C6.51042,4.28125 5.89062,4.5026 5.51562,4.94531 C5.14062,5.38802 4.95312,6.07292 4.95312,7 C4.95312,7.9375 5.14062,8.6276 5.51562,9.07031 C5.89062,9.51302 6.51042,9.73438 7.375,9.73438 C7.66667,9.73438 7.94792,9.69271 8.21875,9.60938 C8.51042,9.53646 8.79167,9.42188 9.0625,9.26562 L9.0625,9.76562 C8.79167,9.90104 8.51042,10 8.21875,10.0625 C7.91667,10.125 7.61979,10.1562 7.32812,10.1562 C6.45312,10.1562 5.75521,9.91667 5.23438,9.4375 C4.71354,8.95833 4.45312,8.14323 4.45312,6.99219 C4.45312,5.84115 4.71354,5.02604 5.23438,4.54688 C5.75521,4.07812 6.45312,3.84375 7.32812,3.84375 C7.61979,3.84375 7.92708,3.88542 8.25,3.96875 C8.57292,4.04167 8.84375,4.14583 9.0625,4.28125 M14.5781,5.01562 C14.224,4.52604 13.7396,4.28125 13.125,4.28125 C12.5104,4.28125 12.026,4.52604 11.6719,5.01562 C11.3177,5.49479 11.1406,6.15104 11.1406,6.98438 C11.1406,7.83854 11.3177,8.51042 11.6719,9 C12.026,9.48958 12.5104,9.73438 13.125,9.73438 C13.7396,9.73438 14.224,9.48958 14.5781,9 C14.9323,8.5 15.1094,7.82812 15.1094,6.98438 C15.1094,6.16146 14.9323,5.50521 14.5781,5.01562 M13.125,3.84375 C13.8854,3.84375 14.4896,4.13021 14.9375,4.70312 C15.3854,5.27604 15.6094,6.03646 15.6094,6.98438 C15.6094,7.97396 15.3854,8.75521 14.9375,9.32812 C14.4896,9.90104 13.8854,10.1875 13.125,10.1875 C12.3438,10.1875 11.7292,9.90104 11.2812,9.32812 C10.8438,8.75521 10.625,7.97396 10.625,6.98438 C10.625,6.02604 10.849,5.26302 11.2969,4.69531 C11.7448,4.1276 12.3542,3.84375 13.125,3.84375 M22.2656,6.375 L22.2656,10 L21.7656,10 L21.7656,6.40625 C21.7656,5.625 21.6406,5.07552 21.3906,4.75781 C21.1406,4.4401 20.7708,4.28125 20.2812,4.28125 C19.7083,4.28125 19.224,4.45312 18.8281,4.79688 C18.4115,5.14062 18.2031,5.73958 18.2031,6.59375 L18.2031,10 L17.7188,10 L17.7188,3.98438 L18.2031,3.98438 L18.2031,5.10938 C18.3802,4.74479 18.6146,4.46875 18.9062,4.28125 C19.3229,3.98958 19.7865,3.84375 20.2969,3.84375 C20.901,3.84375 21.3802,4.04688 21.7344,4.45312 C22.0885,4.84896 22.2656,5.48958 22.2656,6.375 M25.2031,2.28125 L25.2031,3.98438 L27.2344,3.98438 L27.2344,4.40625 L25.2031,4.40625 L25.2031,8.01562 C25.2031,8.47396 25.2604,8.79688 25.375,8.98438 C25.625,9.38021 25.9844,9.57812 26.4531,9.57812 L27.2344,9.57812 L27.2344,10 L26.4688,10 C25.9792,10 25.5625,9.85677 25.2188,9.57031 C24.875,9.28385 24.7031,8.76562 24.7031,8.01562 L24.7031,4.40625 L23.9844,4.40625 L23.9844,3.98438 L24.7031,3.98438 L24.7031,2.28125 L25.2031,2.28125 M32.2656,4.40625 C32.1823,4.36458 32.0729,4.33333 31.9375,4.3125 C31.8125,4.29167 31.6615,4.28125 31.4844,4.28125 C30.8698,4.28125 30.3646,4.50521 29.9688,4.95312 C29.6458,5.31771 29.4844,5.94271 29.4844,6.82812 L29.4844,10 L29,10 L29,3.98438 L29.4844,3.98438 L29.4844,5.10938 C29.651,4.78646 29.8802,4.51562 30.1719,4.29688 C30.5677,3.99479 31.0365,3.84375 31.5781,3.84375 C31.724,3.84375 31.849,3.84896 31.9531,3.85938 C32.0573,3.85938 32.1615,3.86979 32.2656,3.89062 L32.2656,4.40625 M37.0938,5.01562 C36.7396,4.52604 36.2552,4.28125 35.6406,4.28125 C35.026,4.28125 34.5417,4.52604 34.1875,5.01562 C33.8333,5.49479 33.6562,6.15104 33.6562,6.98438 C33.6562,7.83854 33.8333,8.51042 34.1875,9 C34.5417,9.48958 35.026,9.73438 35.6406,9.73438 C36.2552,9.73438 36.7396,9.48958 37.0938,9 C37.4479,8.5 37.625,7.82812 37.625,6.98438 C37.625,6.16146 37.4479,5.50521 37.0938,5.01562 M35.6406,3.84375 C36.401,3.84375 37.0052,4.13021 37.4531,4.70312 C37.901,5.27604 38.125,6.03646 38.125,6.98438 C38.125,7.97396 37.901,8.75521 37.4531,9.32812 C37.0052,9.90104 36.401,10.1875 35.6406,10.1875 C34.8594,10.1875 34.2448,9.90104 33.7969,9.32812 C33.3594,8.75521 33.1406,7.97396 33.1406,6.98438 C33.1406,6.02604 33.3646,5.26302 33.8125,4.69531 C34.2604,4.1276 34.8698,3.84375 35.6406,3.84375 M40.2344,1.64062 L40.7188,1.64062 L40.7188,10 L40.2344,10 L40.2344,1.64062 M47.6406,12.1719 L47.6406,12.5938 L41.9219,12.5938 L41.9219,12.1719 L47.6406,12.1719 M52.0469,4.40625 C51.9635,4.36458 51.8542,4.33333 51.7188,4.3125 C51.5938,4.29167 51.4427,4.28125 51.2656,4.28125 C50.651,4.28125 50.1458,4.50521 49.75,4.95312 C49.4271,5.31771 49.2656,5.94271 49.2656,6.82812 L49.2656,10 L48.7812,10 L48.7812,3.98438 L49.2656,3.98438 L49.2656,5.10938 C49.4323,4.78646 49.6615,4.51562 49.9531,4.29688 C50.349,3.99479 50.8177,3.84375 51.3594,3.84375 C51.5052,3.84375 51.6302,3.84896 51.7344,3.85938 C51.8385,3.85938 51.9427,3.86979 52.0469,3.89062 L52.0469,4.40625 M56.875,5.01562 C56.5208,4.52604 56.0365,4.28125 55.4219,4.28125 C54.8073,4.28125 54.3229,4.52604 53.9688,5.01562 C53.6146,5.49479 53.4375,6.15104 53.4375,6.98438 C53.4375,7.83854 53.6146,8.51042 53.9688,9 C54.3229,9.48958 54.8073,9.73438 55.4219,9.73438 C56.0365,9.73438 56.5208,9.48958 56.875,9 C57.2292,8.5 57.4062,7.82812 57.4062,6.98438 C57.4062,6.16146 57.2292,5.50521 56.875,5.01562 M55.4219,3.84375 C56.1823,3.84375 56.7865,4.13021 57.2344,4.70312 C57.6823,5.27604 57.9062,6.03646 57.9062,6.98438 C57.9062,7.97396 57.6823,8.75521 57.2344,9.32812 C56.7865,9.90104 56.1823,10.1875 55.4219,10.1875 C54.6406,10.1875 54.026,9.90104 53.5781,9.32812 C53.1406,8.75521 52.9219,7.97396 52.9219,6.98438 C52.9219,6.02604 53.1458,5.26302 53.5938,4.69531 C54.0417,4.1276 54.651,3.84375 55.4219,3.84375 M63.7344,9.09375 C64.151,8.67708 64.3594,7.97917 64.3594,7 C64.3594,6.02083 64.151,5.32292 63.7344,4.90625 C63.3177,4.48958 62.8802,4.28125 62.4219,4.28125 C61.974,4.28125 61.5417,4.48958 61.125,4.90625 C60.7188,5.32292 60.5156,6.02083 60.5156,7 C60.5156,7.97917 60.7188,8.67708 61.125,9.09375 C61.5417,9.51042 61.974,9.71875 62.4219,9.71875 C62.8802,9.71875 63.3177,9.51042 63.7344,9.09375 M60.5,5.35938 C60.7292,4.83854 60.974,4.47917 61.2344,4.28125 C61.6406,3.98958 62.026,3.84375 62.3906,3.84375 C63.099,3.84375 63.6901,4.13281 64.1641,4.71094 C64.638,5.28906 64.875,6.05208 64.875,7 C64.875,7.94792 64.638,8.71094 64.1641,9.28906 C63.6901,9.86719 63.099,10.1562 62.3906,10.1562 C62.026,10.1562 61.6406,10.0052 61.2344,9.70312 C60.974,9.51562 60.7292,9.16146 60.5,8.64062 L60.5,10 L60.0156,10 L60.0156,1.64062 L60.5,1.64062 L60.5,5.35938 M70.5625,5.01562 C70.2083,4.52604 69.724,4.28125 69.1094,4.28125 C68.4948,4.28125 68.0104,4.52604 67.6562,5.01562 C67.3021,5.49479 67.125,6.15104 67.125,6.98438 C67.125,7.83854 67.3021,8.51042 67.6562,9 C68.0104,9.48958 68.4948,9.73438 69.1094,9.73438 C69.724,9.73438 70.2083,9.48958 70.5625,9 C70.9167,8.5 71.0938,7.82812 71.0938,6.98438 C71.0938,6.16146 70.9167,5.50521 70.5625,5.01562 M69.1094,3.84375 C69.8698,3.84375 70.474,4.13021 70.9219,4.70312 C71.3698,5.27604 71.5938,6.03646 71.5938,6.98438 C71.5938,7.97396 71.3698,8.75521 70.9219,9.32812 C70.474,9.90104 69.8698,10.1875 69.1094,10.1875 C68.3281,10.1875 67.7135,9.90104 67.2656,9.32812 C66.8281,8.75521 66.6094,7.97396 66.6094,6.98438 C66.6094,6.02604 66.8333,5.26302 67.2812,4.69531 C67.7292,4.1276 68.3385,3.84375 69.1094,3.84375 M74.2188,2.28125 L74.2188,3.98438 L76.25,3.98438 L76.25,4.40625 L74.2188,4.40625 L74.2188,8.01562 C74.2188,8.47396 74.276,8.79688 74.3906,8.98438 C74.6406,9.38021 75,9.57812 75.4688,9.57812 L76.25,9.57812 L76.25,10 L75.4844,10 C74.9948,10 74.5781,9.85677 74.2344,9.57031 C73.8906,9.28385 73.7188,8.76562 73.7188,8.01562 L73.7188,4.40625 L73,4.40625 L73,3.98438 L73.7188,3.98438 L73.7188,2.28125 L74.2188,2.28125"/>
</g>

<g fill="none" stroke="#000000" stroke-opacity="1" stroke-width="1" stroke-linecap="square" stroke-linejoin="bevel" transform="matrix(1.99962,0,0,1.99962,545.889,22.9956)"
font-family="sans" font-size="11" font-weight="100" font-style="normal" 
>
</g>

<g fill="none" stroke="#000000" stroke-opacity="1" stroke-width="1" stroke-linecap="square" stroke-linejoin="bevel" transform="matrix(1.99962,0,0,1.99962,545.889,22.9956)"
font-family="Sans Serif" font-size="9" font-weight="400" font-style="normal" 
>
</g>

<g fill="none" stroke="#000000" stroke-opacity="1" stroke-width="1" stroke-linecap="square" stroke-linejoin="bevel" transform="matrix(1.99962,0,0,1.99962,-0.00119977,179.966)"
font-family="Sans Serif" font-size="9" font-weight="400" font-style="normal" 
>
</g>

<g fill="none" stroke="#000000" stroke-opacity="1" stroke-width="1" stroke-linecap="square" stroke-linejoin="bevel" transform="matrix(1.99962,0,0,1.99962,-0.00119977,179.966)"
font-family="Sans Serif" font-size="9" font-weight="400" font-style="normal" 
>
</g>

<g fill="none" stroke="#000000" stroke-opacity="1" stroke-width="1" stroke-linecap="square" stroke-linejoin="bevel" transform="matrix(1.99962,0,0,1.99962,-0.00119977,179.966)"
font-family="Sans Serif" font-size="9" font-weight="400" font-style="normal" 
>
</g>

<g fill="none" stroke="#000000" stroke-opacity="1" stroke-width="1" stroke-linecap="square" stroke-linejoin="round" transform="matrix(1.99962,0,0,1.99962,-0.00119977,179.966)"
font-family="Sans Serif" font-size="9" font-weight="400" font-style="normal" 
>
<ellipse cx="77.343" cy="-18" rx="76.8424" ry="17.5"/>
</g>

<g fill="none" stroke="#000000" stroke-opacity="1" stroke-width="1" stroke-linecap="square" stroke-linejoin="bevel" transform="matrix(1.99962,0,0,1.99962,-0.00119977,179.966)"
font-family="Sans Serif" font-size="9" font-weight="400" font-style="normal" 
>
</g>

<g fill="none" stroke="#000000" stroke-opacity="1" stroke-width="1" stroke-linecap="square" stroke-linejoin="bevel" transform="matrix(1.99962,0,0,1.99962,77.4513,130.975)"
font-family="Sans Serif" font-size="9" font-weight="400" font-style="normal" 
>
</g>

<g fill="none" stroke="#000000" stroke-opacity="1" stroke-width="1" stroke-linecap="square" stroke-linejoin="bevel" transform="matrix(1.99962,0,0,1.99962,77.4513,130.975)"
font-family="sans" font-size="11" font-weight="100" font-style="normal" 
>
</g>

<g fill="#000000" fill-opacity="1" stroke="#000000" stroke-opacity="1" stroke-width="1" stroke-linecap="square" stroke-linejoin="round" transform="matrix(1.99962,0,0,1.99962,77.4513,130.975)"
font-family="sans" font-size="11" font-weight="100" font-style="normal" 
>
<path vector-effect="none" fill-rule="nonzero" d="M2.96875,1.98438 L3.53125,1.98438 L0.734375,11.0156 L0.171875,11.0156 L2.96875,1.98438 M5.46875,2.28125 L5.46875,3.98438 L7.5,3.98438 L7.5,4.40625 L5.46875,4.40625 L5.46875,8.01562 C5.46875,8.47396 5.52604,8.79688 5.64062,8.98438 C5.89062,9.38021 6.25,9.57812 6.71875,9.57812 L7.5,9.57812 L7.5,10 L6.73438,10 C6.24479,10 5.82812,9.85677 5.48438,9.57031 C5.14062,9.28385 4.96875,8.76562 4.96875,8.01562 L4.96875,4.40625 L4.25,4.40625 L4.25,3.98438 L4.96875,3.98438 L4.96875,2.28125 L5.46875,2.28125 M11.6719,6.60938 C10.8698,6.60938 10.2943,6.75 9.94531,7.03125 C9.59635,7.3125 9.42188,7.72396 9.42188,8.26562 C9.42188,8.79688 9.56771,9.17448 9.85938,9.39844 C10.151,9.6224 10.4948,9.73438 10.8906,9.73438 C11.6406,9.73438 12.1823,9.41667 12.5156,8.78125 C12.849,8.13542 13.0156,7.53125 13.0156,6.96875 L13.0156,6.60938 L11.6719,6.60938 M13.5156,6.5625 L13.5156,10 L13.0156,10 L13.0156,8.35938 C12.7448,9.16146 12.3802,9.67188 11.9219,9.89062 C11.5677,10.0677 11.2083,10.1562 10.8438,10.1562 C10.25,10.1562 9.78125,9.99479 9.4375,9.67188 C9.09375,9.34896 8.92188,8.8776 8.92188,8.25781 C8.92188,7.63802 9.14583,7.14062 9.59375,6.76562 C10.0417,6.39062 10.7708,6.20312 11.7812,6.20312 L13.0156,6.20312 L13.0156,6.10938 C13.0156,5.57812 12.8594,5.14062 12.5469,4.79688 C12.2552,4.45312 11.7604,4.28125 11.0625,4.28125 C10.7188,4.28125 10.3698,4.34375 10.0156,4.46875 C9.78646,4.55208 9.48438,4.71875 9.10938,4.96875 L9.10938,4.4375 C9.43229,4.23958 9.73438,4.09896 10.0156,4.01562 C10.4115,3.90104 10.7917,3.84375 11.1562,3.84375 C11.875,3.84375 12.4635,4.05729 12.9219,4.48438 C13.3177,4.84896 13.5156,5.54167 13.5156,6.5625 M19.2656,4.40625 C19.1823,4.36458 19.0729,4.33333 18.9375,4.3125 C18.8125,4.29167 18.6615,4.28125 18.4844,4.28125 C17.8698,4.28125 17.3646,4.50521 16.9688,4.95312 C16.6458,5.31771 16.4844,5.94271 16.4844,6.82812 L16.4844,10 L16,10 L16,3.98438 L16.4844,3.98438 L16.4844,5.10938 C16.651,4.78646 16.8802,4.51562 17.1719,4.29688 C17.5677,3.99479 18.0365,3.84375 18.5781,3.84375 C18.724,3.84375 18.849,3.84896 18.9531,3.85938 C19.0573,3.85938 19.1615,3.86979 19.2656,3.89062 L19.2656,4.40625 M24.5156,6.92188 C24.5156,6.08854 24.3464,5.44271 24.0078,4.98438 C23.6693,4.52604 23.1927,4.29688 22.5781,4.29688 C21.974,4.29688 21.5026,4.52604 21.1641,4.98438 C20.8255,5.44271 20.6562,6.08854 20.6562,6.92188 C20.6562,7.75521 20.8255,8.40104 21.1641,8.85938 C21.5026,9.31771 21.974,9.54688 22.5781,9.54688 C23.1927,9.54688 23.6693,9.31771 24.0078,8.85938 C24.3464,8.40104 24.5156,7.75521 24.5156,6.92188 M25,9.25 C25,10.5 24.763,11.3177 24.2891,11.7031 C23.8151,12.0885 23.2135,12.2812 22.4844,12.2812 C22.1302,12.2812 21.8021,12.2604 21.5,12.2188 C21.1875,12.1562 20.8854,12.0729 20.5938,11.9688 L20.5938,11.4062 C20.8854,11.5625 21.1719,11.6797 21.4531,11.7578 C21.7344,11.8359 22.026,11.875 22.3281,11.875 C22.9219,11.875 23.4349,11.7474 23.8672,11.4922 C24.2995,11.237 24.5156,10.5521 24.5156,9.4375 L24.5156,8.48438 C24.3594,8.90104 24.1562,9.22917 23.9062,9.46875 C23.5104,9.82292 23.0677,10 22.5781,10 C21.8177,10 21.224,9.73177 20.7969,9.19531 C20.3698,8.65885 20.1562,7.90104 20.1562,6.92188 C20.1562,5.94271 20.3698,5.1849 20.7969,4.64844 C21.224,4.11198 21.8177,3.84375 22.5781,3.84375 C23.0677,3.84375 23.4844,3.99479 23.8281,4.29688 C24.099,4.53646 24.3281,4.85938 24.5156,5.26562 L24.5156,3.98438 L25,3.98438 L25,9.25 M31.7969,6.75 L31.7969,7.0625 L27.2344,7.0625 C27.2344,8.02083 27.4219,8.69792 27.7969,9.09375 C28.2135,9.52083 28.8281,9.73438 29.6406,9.73438 C29.8594,9.73438 30.1458,9.6875 30.5,9.59375 C30.8542,9.5 31.2083,9.35938 31.5625,9.17188 L31.5625,9.6875 C31.2083,9.84375 30.8464,9.96094 30.4766,10.0391 C30.1068,10.1172 29.8125,10.1562 29.5938,10.1562 C28.6667,10.1562 27.9688,9.90625 27.5,9.40625 C26.9896,8.875 26.7344,8.09375 26.7344,7.0625 C26.7344,5.98958 26.9635,5.1875 27.4219,4.65625 C27.901,4.11458 28.5677,3.84375 29.4219,3.84375 C30.2031,3.84375 30.7969,4.10417 31.2031,4.625 C31.599,5.16667 31.7969,5.875 31.7969,6.75 M31.2969,6.64062 C31.2969,5.79688 31.1042,5.18229 30.7188,4.79688 C30.4062,4.45312 29.974,4.28125 29.4219,4.28125 C28.8281,4.28125 28.3281,4.45833 27.9219,4.8125 C27.5469,5.14583 27.3229,5.75521 27.25,6.64062 L31.2969,6.64062 M34.3906,2.28125 L34.3906,3.98438 L36.4219,3.98438 L36.4219,4.40625 L34.3906,4.40625 L34.3906,8.01562 C34.3906,8.47396 34.4479,8.79688 34.5625,8.98438 C34.8125,9.38021 35.1719,9.57812 35.6406,9.57812 L36.4219,9.57812 L36.4219,10 L35.6562,10 C35.1667,10 34.75,9.85677 34.4062,9.57031 C34.0625,9.28385 33.8906,8.76562 33.8906,8.01562 L33.8906,4.40625 L33.1719,4.40625 L33.1719,3.98438 L33.8906,3.98438 L33.8906,2.28125 L34.3906,2.28125 M42.5469,12.1719 L42.5469,12.5938 L36.8281,12.5938 L36.8281,12.1719 L42.5469,12.1719 M47.0938,4.15625 L47.0938,4.70312 C46.7396,4.50521 46.5208,4.39583 46.4375,4.375 C46.1875,4.32292 45.875,4.29167 45.5,4.28125 C44.9375,4.28125 44.4948,4.39062 44.1719,4.60938 C43.9219,4.79688 43.7969,5.11458 43.7969,5.5625 C43.7969,5.875 43.9167,6.11458 44.1562,6.28125 C44.3958,6.46875 44.7448,6.61458 45.2031,6.71875 L45.5469,6.78125 C46.1198,6.90625 46.5521,7.08333 46.8438,7.3125 C47.1875,7.58333 47.3646,7.92708 47.375,8.34375 C47.375,8.90625 47.2083,9.34896 46.875,9.67188 C46.5208,9.99479 45.9427,10.1562 45.1406,10.1562 C44.7031,10.1562 44.3698,10.125 44.1406,10.0625 C43.8594,9.98958 43.5677,9.89583 43.2656,9.78125 L43.2656,9.15625 C43.7031,9.40625 43.9844,9.55208 44.1094,9.59375 C44.4635,9.6875 44.8177,9.73438 45.1719,9.73438 C45.7448,9.73438 46.1719,9.61458 46.4531,9.375 C46.7344,9.125 46.875,8.80729 46.875,8.42188 C46.875,8.08854 46.7812,7.84896 46.5938,7.70312 C46.3229,7.48438 45.8958,7.30729 45.3125,7.17188 L44.9688,7.09375 C44.4583,6.96875 44.0729,6.80208 43.8125,6.59375 C43.4792,6.32292 43.3125,5.99479 43.3125,5.60938 C43.3125,4.98438 43.513,4.53385 43.9141,4.25781 C44.3151,3.98177 44.8073,3.84375 45.3906,3.84375 C45.8906,3.84375 46.2344,3.86979 46.4219,3.92188 C46.651,3.98438 46.875,4.0625 47.0938,4.15625 M54.0938,6.75 L54.0938,7.0625 L49.5312,7.0625 C49.5312,8.02083 49.7188,8.69792 50.0938,9.09375 C50.5104,9.52083 51.125,9.73438 51.9375,9.73438 C52.1562,9.73438 52.4427,9.6875 52.7969,9.59375 C53.151,9.5 53.5052,9.35938 53.8594,9.17188 L53.8594,9.6875 C53.5052,9.84375 53.1432,9.96094 52.7734,10.0391 C52.4036,10.1172 52.1094,10.1562 51.8906,10.1562 C50.9635,10.1562 50.2656,9.90625 49.7969,9.40625 C49.2865,8.875 49.0312,8.09375 49.0312,7.0625 C49.0312,5.98958 49.2604,5.1875 49.7188,4.65625 C50.1979,4.11458 50.8646,3.84375 51.7188,3.84375 C52.5,3.84375 53.0938,4.10417 53.5,4.625 C53.8958,5.16667 54.0938,5.875 54.0938,6.75 M53.5938,6.64062 C53.5938,5.79688 53.401,5.18229 53.0156,4.79688 C52.7031,4.45312 52.2708,4.28125 51.7188,4.28125 C51.125,4.28125 50.625,4.45833 50.2188,4.8125 C49.8438,5.14583 49.6198,5.75521 49.5469,6.64062 L53.5938,6.64062 M59.4375,4.40625 C59.3542,4.36458 59.2448,4.33333 59.1094,4.3125 C58.9844,4.29167 58.8333,4.28125 58.6562,4.28125 C58.0417,4.28125 57.5365,4.50521 57.1406,4.95312 C56.8177,5.31771 56.6562,5.94271 56.6562,6.82812 L56.6562,10 L56.1719,10 L56.1719,3.98438 L56.6562,3.98438 L56.6562,5.10938 C56.8229,4.78646 57.0521,4.51562 57.3438,4.29688 C57.7396,3.99479 58.2083,3.84375 58.75,3.84375 C58.8958,3.84375 59.0208,3.84896 59.125,3.85938 C59.2292,3.85938 59.3333,3.86979 59.4375,3.89062 L59.4375,4.40625 M60.1406,3.98438 L60.6562,3.98438 L62.6875,9.45312 L64.7344,3.98438 L65.25,3.98438 L63.0156,10 L62.375,10 L60.1406,3.98438 M71.875,6.75 L71.875,7.0625 L67.3125,7.0625 C67.3125,8.02083 67.5,8.69792 67.875,9.09375 C68.2917,9.52083 68.9062,9.73438 69.7188,9.73438 C69.9375,9.73438 70.224,9.6875 70.5781,9.59375 C70.9323,9.5 71.2865,9.35938 71.6406,9.17188 L71.6406,9.6875 C71.2865,9.84375 70.9245,9.96094 70.5547,10.0391 C70.1849,10.1172 69.8906,10.1562 69.6719,10.1562 C68.7448,10.1562 68.0469,9.90625 67.5781,9.40625 C67.0677,8.875 66.8125,8.09375 66.8125,7.0625 C66.8125,5.98958 67.0417,5.1875 67.5,4.65625 C67.9792,4.11458 68.6458,3.84375 69.5,3.84375 C70.2812,3.84375 70.875,4.10417 71.2812,4.625 C71.6771,5.16667 71.875,5.875 71.875,6.75 M71.375,6.64062 C71.375,5.79688 71.1823,5.18229 70.7969,4.79688 C70.4844,4.45312 70.0521,4.28125 69.5,4.28125 C68.9062,4.28125 68.4062,4.45833 68,4.8125 C67.625,5.14583 67.401,5.75521 67.3281,6.64062 L71.375,6.64062 M77.2188,4.40625 C77.1354,4.36458 77.026,4.33333 76.8906,4.3125 C76.7656,4.29167 76.6146,4.28125 76.4375,4.28125 C75.8229,4.28125 75.3177,4.50521 74.9219,4.95312 C74.599,5.31771 74.4375,5.94271 74.4375,6.82812 L74.4375,10 L73.9531,10 L73.9531,3.98438 L74.4375,3.98438 L74.4375,5.10938 C74.6042,4.78646 74.8333,4.51562 75.125,4.29688 C75.5208,3.99479 75.9896,3.84375 76.5312,3.84375 C76.6771,3.84375 76.8021,3.84896 76.9062,3.85938 C77.0104,3.85938 77.1146,3.86979 77.2188,3.89062 L77.2188,4.40625"/>
</g>

<g fill="none" stroke="#000000" stroke-opacity="1" stroke-width="1" stroke-linecap="square" stroke-linejoin="bevel" transform="matrix(1.99962,0,0,1.99962,77.4513,130.975)"
font-family="sans" font-size="11" font-weight="100" font-style="normal" 
>
</g>

<g fill="none" stroke="#000000" stroke-opacity="1" stroke-width="1" stroke-linecap="square" stroke-linejoin="bevel" transform="matrix(1.99962,0,0,1.99962,77.4513,130.975)"
font-family="Sans Serif" font-size="9" font-weight="400" font-style="normal" 
>
</g>

<g fill="none" stroke="#000000" stroke-opacity="1" stroke-width="1" stroke-linecap="square" stroke-linejoin="bevel" transform="matrix(1.99962,0,0,1.99962,-0.00119977,179.966)"
font-family="Sans Serif" font-size="9" font-weight="400" font-style="normal" 
>
</g>

<g fill="none" stroke="#000000" stroke-opacity="1" stroke-width="1" stroke-linecap="square" stroke-linejoin="bevel" transform="matrix(1.99962,0,0,1.99962,-0.00119977,179.966)"
font-family="Sans Serif" font-size="9" font-weight="400" font-style="normal" 
>
</g>

<g fill="none" stroke="#000000" stroke-opacity="1" stroke-width="1" stroke-linecap="square" stroke-linejoin="bevel" transform="matrix(1.99962,0,0,1.99962,-0.00119977,179.966)"
font-family="Sans Serif" font-size="9" font-weight="400" font-style="normal" 
>
</g>

<g fill="none" stroke="#000000" stroke-opacity="1" stroke-width="1" stroke-linecap="square" stroke-linejoin="round" transform="matrix(1.99962,0,0,1.99962,-0.00119977,179.966)"
font-family="Sans Serif" font-size="9" font-weight="400" font-style="normal" 
>
<path vector-effect="none" fill-rule="evenodd" d="M131.58,-72 C158.98,-72 193.08,-72 224.13,-72 "/>
</g>

<g fill="none" stroke="#000000" stroke-opacity="1" stroke-width="1" stroke-linecap="square" stroke-linejoin="bevel" transform="matrix(1.99962,0,0,1.99962,-0.00119977,179.966)"
font-family="Sans Serif" font-size="9" font-weight="400" font-style="normal" 
>
</g>

<g fill="none" stroke="#000000" stroke-opacity="1" stroke-width="1" stroke-linecap="square" stroke-linejoin="bevel" transform="matrix(1.99962,0,0,1.99962,354.499,7.99848)"
font-family="Sans Serif" font-size="9" font-weight="400" font-style="normal" 
>
</g>

<g fill="none" stroke="#000000" stroke-opacity="1" stroke-width="1" stroke-linecap="square" stroke-linejoin="bevel" transform="matrix(1.99962,0,0,1.99962,354.499,7.99848)"
font-family="sans" font-size="11" font-weight="100" font-style="normal" 
>
</g>

<g fill="#000000" fill-opacity="1" stroke="#000000" stroke-opacity="1" stroke-width="1" stroke-linecap="square" stroke-linejoin="round" transform="matrix(1.99962,0,0,1.99962,354.499,7.99848)"
font-family="sans" font-size="11" font-weight="100" font-style="normal" 
>
<path vector-effect="none" fill-rule="nonzero" d="M2.96875,1.98438 L3.53125,1.98438 L0.734375,11.0156 L0.171875,11.0156 L2.96875,1.98438 M8.53125,5.01562 C8.17708,4.52604 7.69271,4.28125 7.07812,4.28125 C6.46354,4.28125 5.97917,4.52604 5.625,5.01562 C5.27083,5.49479 5.09375,6.15104 5.09375,6.98438 C5.09375,7.83854 5.27083,8.51042 5.625,9 C5.97917,9.48958 6.46354,9.73438 7.07812,9.73438 C7.69271,9.73438 8.17708,9.48958 8.53125,9 C8.88542,8.5 9.0625,7.82812 9.0625,6.98438 C9.0625,6.16146 8.88542,5.50521 8.53125,5.01562 M7.07812,3.84375 C7.83854,3.84375 8.44271,4.13021 8.89062,4.70312 C9.33854,5.27604 9.5625,6.03646 9.5625,6.98438 C9.5625,7.97396 9.33854,8.75521 8.89062,9.32812 C8.44271,9.90104 7.83854,10.1875 7.07812,10.1875 C6.29688,10.1875 5.68229,9.90104 5.23438,9.32812 C4.79688,8.75521 4.57812,7.97396 4.57812,6.98438 C4.57812,6.02604 4.80208,5.26302 5.25,4.69531 C5.69792,4.1276 6.30729,3.84375 7.07812,3.84375 M15.6719,5.35938 L15.6719,1.64062 L16.1406,1.64062 L16.1406,10 L15.6719,10 L15.6719,8.64062 C15.4427,9.16146 15.1927,9.51562 14.9219,9.70312 C14.526,10.0052 14.1458,10.1562 13.7812,10.1562 C13.0729,10.1562 12.4818,9.86719 12.0078,9.28906 C11.5339,8.71094 11.2969,7.94792 11.2969,7 C11.2969,6.05208 11.5339,5.28906 12.0078,4.71094 C12.4818,4.13281 13.0729,3.84375 13.7812,3.84375 C14.1458,3.84375 14.526,3.98958 14.9219,4.28125 C15.1927,4.47917 15.4427,4.83854 15.6719,5.35938 M12.4375,4.90625 C12.0208,5.32292 11.8125,6.02083 11.8125,7 C11.8125,7.97917 12.0208,8.67708 12.4375,9.09375 C12.8542,9.51042 13.2917,9.71875 13.75,9.71875 C14.1979,9.71875 14.6302,9.51042 15.0469,9.09375 C15.4531,8.67708 15.6562,7.97917 15.6562,7 C15.6562,6.02083 15.4531,5.32292 15.0469,4.90625 C14.6302,4.48958 14.1979,4.28125 13.75,4.28125 C13.2917,4.28125 12.8542,4.48958 12.4375,4.90625 M22.2188,5.01562 C21.8646,4.52604 21.3802,4.28125 20.7656,4.28125 C20.151,4.28125 19.6667,4.52604 19.3125,5.01562 C18.9583,5.49479 18.7812,6.15104 18.7812,6.98438 C18.7812,7.83854 18.9583,8.51042 19.3125,9 C19.6667,9.48958 20.151,9.73438 20.7656,9.73438 C21.3802,9.73438 21.8646,9.48958 22.2188,9 C22.5729,8.5 22.75,7.82812 22.75,6.98438 C22.75,6.16146 22.5729,5.50521 22.2188,5.01562 M20.7656,3.84375 C21.526,3.84375 22.1302,4.13021 22.5781,4.70312 C23.026,5.27604 23.25,6.03646 23.25,6.98438 C23.25,7.97396 23.026,8.75521 22.5781,9.32812 C22.1302,9.90104 21.526,10.1875 20.7656,10.1875 C19.9844,10.1875 19.3698,9.90104 18.9219,9.32812 C18.4844,8.75521 18.2656,7.97396 18.2656,6.98438 C18.2656,6.02604 18.4896,5.26302 18.9375,4.69531 C19.3854,4.1276 19.9948,3.84375 20.7656,3.84375 M29.6875,5.29688 C29.875,4.80729 30.1667,4.44271 30.5625,4.20312 C30.9479,3.96354 31.401,3.84375 31.9219,3.84375 C32.4427,3.84375 32.8594,4.02604 33.1719,4.39062 C33.4948,4.75521 33.6562,5.41667 33.6562,6.375 L33.6562,10 L33.1719,10 L33.1719,6.40625 C33.1719,5.57292 33.0573,5.01042 32.8281,4.71875 C32.599,4.42708 32.2917,4.28125 31.9062,4.28125 C31.3542,4.28125 30.8698,4.44792 30.4531,4.78125 C29.9844,5.15625 29.75,5.76042 29.75,6.59375 L29.75,10 L29.2656,10 L29.2656,6.40625 C29.2656,5.60417 29.1536,5.04948 28.9297,4.74219 C28.7057,4.4349 28.3958,4.28125 28,4.28125 C27.4479,4.28125 26.9635,4.45312 26.5469,4.79688 C26.0781,5.16146 25.8438,5.76042 25.8438,6.59375 L25.8438,10 L25.3594,10 L25.3594,3.98438 L25.8438,3.98438 L25.8438,5.10938 C26.0208,4.71354 26.2969,4.40104 26.6719,4.17188 C27.0365,3.95312 27.4896,3.84375 28.0312,3.84375 C28.3854,3.84375 28.724,3.95833 29.0469,4.1875 C29.2969,4.375 29.5104,4.74479 29.6875,5.29688 "/>
</g>

<g fill="none" stroke="#000000" stroke-opacity="1" stroke-width="1" stroke-linecap="square" stroke-linejoin="bevel" transform="matrix(1.99962,0,0,1.99962,354.499,7.99848)"
font-family="sans" font-size="11" font-weight="100" font-style="normal" 
>
</g>

<g fill="none" stroke="#000000" stroke-opacity="1" stroke-width="1" stroke-linecap="square" stroke-linejoin="bevel" transform="matrix(1.99962,0,0,1.99962,354.499,7.99848)"
font-family="Sans Serif" font-size="9" font-weight="400" font-style="normal" 
>
</g>

<g fill="none" stroke="#000000" stroke-opacity="1" stroke-width="1" stroke-linecap="square" stroke-linejoin="bevel" transform="matrix(1.99962,0,0,1.99962,-0.00119977,179.966)"
font-family="Sans Serif" font-size="9" font-weight="400" font-style="normal" 
>
</g>

<g fill="#000000" fill-opacity="1" stroke="#000000" stroke-opacity="1" stroke-width="1" stroke-linecap="square" stroke-linejoin="round" transform="matrix(1.99962,0,0,1.99962,-0.00119977,179.966)"
font-family="Sans Serif" font-size="9" font-weight="400" font-style="normal" 
>
<path vector-effect="none" fill-rule="evenodd" d="M224.13,-72 L224.13,-68.36 L234.53,-72 L224.13,-75.64 L224.13,-72"/>
</g>

<g fill="none" stroke="#000000" stroke-opacity="1" stroke-width="1" stroke-linecap="square" stroke-linejoin="bevel" transform="matrix(1.99962,0,0,1.99962,-0.00119977,179.966)"
font-family="Sans Serif" font-size="9" font-weight="400" font-style="normal" 
>
</g>

<g fill="none" stroke="#000000" stroke-opacity="1" stroke-width="1" stroke-linecap="square" stroke-linejoin="bevel" transform="matrix(1.99962,0,0,1.99962,-0.00119977,179.966)"
font-family="Sans Serif" font-size="9" font-weight="400" font-style="normal" 
>
</g>

<g fill="none" stroke="#000000" stroke-opacity="1" stroke-width="1" stroke-linecap="square" stroke-linejoin="bevel" transform="matrix(1.99962,0,0,1.99962,-0.00119977,179.966)"
font-family="Sans Serif" font-size="9" font-weight="400" font-style="normal" 
>
</g>

<g fill="none" stroke="#000000" stroke-opacity="1" stroke-width="1" stroke-linecap="square" stroke-linejoin="bevel" transform="matrix(1.99962,0,0,1.99962,-0.00119977,179.966)"
font-family="Sans Serif" font-size="9" font-weight="400" font-style="normal" 
>
</g>

<g fill="none" stroke="#000000" stroke-opacity="1" stroke-width="1" stroke-linecap="square" stroke-linejoin="round" transform="matrix(1.99962,0,0,1.99962,-0.00119977,179.966)"
font-family="Sans Serif" font-size="9" font-weight="400" font-style="normal" 
>
<path vector-effect="none" fill-rule="evenodd" d="M257.97,-58.954 C247.66,-56.892 236.88,-55.084 226.69,-54 C198.4,-50.993 190.97,-51.015 162.69,-54 C152.19,-55.107 141.08,-56.969 130.49,-59.086 "/>
</g>

<g fill="none" stroke="#000000" stroke-opacity="1" stroke-width="1" stroke-linecap="square" stroke-linejoin="bevel" transform="matrix(1.99962,0,0,1.99962,-0.00119977,179.966)"
font-family="Sans Serif" font-size="9" font-weight="400" font-style="normal" 
>
</g>

<g fill="none" stroke="#000000" stroke-opacity="1" stroke-width="1" stroke-linecap="square" stroke-linejoin="bevel" transform="matrix(1.99962,0,0,1.99962,340.08,43.9916)"
font-family="Sans Serif" font-size="9" font-weight="400" font-style="normal" 
>
</g>

<g fill="none" stroke="#000000" stroke-opacity="1" stroke-width="1" stroke-linecap="square" stroke-linejoin="bevel" transform="matrix(1.99962,0,0,1.99962,340.08,43.9916)"
font-family="sans" font-size="11" font-weight="100" font-style="normal" 
>
</g>

<g fill="#000000" fill-opacity="1" stroke="#000000" stroke-opacity="1" stroke-width="1" stroke-linecap="square" stroke-linejoin="round" transform="matrix(1.99962,0,0,1.99962,340.08,43.9916)"
font-family="sans" font-size="11" font-weight="100" font-style="normal" 
>
<path vector-effect="none" fill-rule="nonzero" d="M2.96875,1.98438 L3.53125,1.98438 L0.734375,11.0156 L0.171875,11.0156 L2.96875,1.98438 M9.0625,4.28125 L9.0625,4.79688 C8.77083,4.61979 8.52604,4.5 8.32812,4.4375 C7.99479,4.33333 7.67708,4.28125 7.375,4.28125 C6.51042,4.28125 5.89062,4.5026 5.51562,4.94531 C5.14062,5.38802 4.95312,6.07292 4.95312,7 C4.95312,7.9375 5.14062,8.6276 5.51562,9.07031 C5.89062,9.51302 6.51042,9.73438 7.375,9.73438 C7.66667,9.73438 7.94792,9.69271 8.21875,9.60938 C8.51042,9.53646 8.79167,9.42188 9.0625,9.26562 L9.0625,9.76562 C8.79167,9.90104 8.51042,10 8.21875,10.0625 C7.91667,10.125 7.61979,10.1562 7.32812,10.1562 C6.45312,10.1562 5.75521,9.91667 5.23438,9.4375 C4.71354,8.95833 4.45312,8.14323 4.45312,6.99219 C4.45312,5.84115 4.71354,5.02604 5.23438,4.54688 C5.75521,4.07812 6.45312,3.84375 7.32812,3.84375 C7.61979,3.84375 7.92708,3.88542 8.25,3.96875 C8.57292,4.04167 8.84375,4.14583 9.0625,4.28125 M15.3281,5.29688 C15.5156,4.80729 15.8073,4.44271 16.2031,4.20312 C16.5885,3.96354 17.0417,3.84375 17.5625,3.84375 C18.0833,3.84375 18.5,4.02604 18.8125,4.39062 C19.1354,4.75521 19.2969,5.41667 19.2969,6.375 L19.2969,10 L18.8125,10 L18.8125,6.40625 C18.8125,5.57292 18.6979,5.01042 18.4688,4.71875 C18.2396,4.42708 17.9323,4.28125 17.5469,4.28125 C16.9948,4.28125 16.5104,4.44792 16.0938,4.78125 C15.625,5.15625 15.3906,5.76042 15.3906,6.59375 L15.3906,10 L14.9062,10 L14.9062,6.40625 C14.9062,5.60417 14.7943,5.04948 14.5703,4.74219 C14.3464,4.4349 14.0365,4.28125 13.6406,4.28125 C13.0885,4.28125 12.6042,4.45312 12.1875,4.79688 C11.7188,5.16146 11.4844,5.76042 11.4844,6.59375 L11.4844,10 L11,10 L11,3.98438 L11.4844,3.98438 L11.4844,5.10938 C11.6615,4.71354 11.9375,4.40104 12.3125,4.17188 C12.6771,3.95312 13.1302,3.84375 13.6719,3.84375 C14.026,3.84375 14.3646,3.95833 14.6875,4.1875 C14.9375,4.375 15.151,4.74479 15.3281,5.29688 M25.7031,5.35938 L25.7031,1.64062 L26.1719,1.64062 L26.1719,10 L25.7031,10 L25.7031,8.64062 C25.474,9.16146 25.224,9.51562 24.9531,9.70312 C24.5573,10.0052 24.1771,10.1562 23.8125,10.1562 C23.1042,10.1562 22.513,9.86719 22.0391,9.28906 C21.5651,8.71094 21.3281,7.94792 21.3281,7 C21.3281,6.05208 21.5651,5.28906 22.0391,4.71094 C22.513,4.13281 23.1042,3.84375 23.8125,3.84375 C24.1771,3.84375 24.5573,3.98958 24.9531,4.28125 C25.224,4.47917 25.474,4.83854 25.7031,5.35938 M22.4688,4.90625 C22.0521,5.32292 21.8438,6.02083 21.8438,7 C21.8438,7.97917 22.0521,8.67708 22.4688,9.09375 C22.8854,9.51042 23.3229,9.71875 23.7812,9.71875 C24.2292,9.71875 24.6615,9.51042 25.0781,9.09375 C25.4844,8.67708 25.6875,7.97917 25.6875,7 C25.6875,6.02083 25.4844,5.32292 25.0781,4.90625 C24.6615,4.48958 24.2292,4.28125 23.7812,4.28125 C23.3229,4.28125 22.8854,4.48958 22.4688,4.90625 M33.0312,12.1719 L33.0312,12.5938 L27.3125,12.5938 L27.3125,12.1719 L33.0312,12.1719 M33.625,3.98438 L34.1406,3.98438 L36.1719,9.45312 L38.2188,3.98438 L38.7344,3.98438 L36.5,10 L35.8594,10 L33.625,3.98438 M45.3594,6.75 L45.3594,7.0625 L40.7969,7.0625 C40.7969,8.02083 40.9844,8.69792 41.3594,9.09375 C41.776,9.52083 42.3906,9.73438 43.2031,9.73438 C43.4219,9.73438 43.7083,9.6875 44.0625,9.59375 C44.4167,9.5 44.7708,9.35938 45.125,9.17188 L45.125,9.6875 C44.7708,9.84375 44.4089,9.96094 44.0391,10.0391 C43.6693,10.1172 43.375,10.1562 43.1562,10.1562 C42.2292,10.1562 41.5312,9.90625 41.0625,9.40625 C40.5521,8.875 40.2969,8.09375 40.2969,7.0625 C40.2969,5.98958 40.526,5.1875 40.9844,4.65625 C41.4635,4.11458 42.1302,3.84375 42.9844,3.84375 C43.7656,3.84375 44.3594,4.10417 44.7656,4.625 C45.1615,5.16667 45.3594,5.875 45.3594,6.75 M44.8594,6.64062 C44.8594,5.79688 44.6667,5.18229 44.2812,4.79688 C43.9688,4.45312 43.5365,4.28125 42.9844,4.28125 C42.3906,4.28125 41.8906,4.45833 41.4844,4.8125 C41.1094,5.14583 40.8854,5.75521 40.8125,6.64062 L44.8594,6.64062 M47.4375,1.64062 L47.9219,1.64062 L47.9219,10 L47.4375,10 L47.4375,1.64062"/>
</g>

<g fill="none" stroke="#000000" stroke-opacity="1" stroke-width="1" stroke-linecap="square" stroke-linejoin="bevel" transform="matrix(1.99962,0,0,1.99962,340.08,43.9916)"
font-family="sans" font-size="11" font-weight="100" font-style="normal" 
>
</g>

<g fill="none" stroke="#000000" stroke-opacity="1" stroke-width="1" stroke-linecap="square" stroke-linejoin="bevel" transform="matrix(1.99962,0,0,1.99962,340.08,43.9916)"
font-family="Sans Serif" font-size="9" font-weight="400" font-style="normal" 
>
</g>

<g fill="none" stroke="#000000" stroke-opacity="1" stroke-width="1" stroke-linecap="square" stroke-linejoin="bevel" transform="matrix(1.99962,0,0,1.99962,-0.00119977,179.966)"
font-family="Sans Serif" font-size="9" font-weight="400" font-style="normal" 
>
</g>

<g fill="#000000" fill-opacity="1" stroke="#000000" stroke-opacity="1" stroke-width="1" stroke-linecap="square" stroke-linejoin="round" transform="matrix(1.99962,0,0,1.99962,-0.00119977,179.966)"
font-family="Sans Serif" font-size="9" font-weight="400" font-style="normal" 
>
<path vector-effect="none" fill-rule="evenodd" d="M130.49,-59.086 L131.222,-62.5685 L120.54,-61.178 L129.758,-55.6035 L130.49,-59.086"/>
</g>

<g fill="none" stroke="#000000" stroke-opacity="1" stroke-width="1" stroke-linecap="square" stroke-linejoin="bevel" transform="matrix(1.99962,0,0,1.99962,-0.00119977,179.966)"
font-family="Sans Serif" font-size="9" font-weight="400" font-style="normal" 
>
</g>

<g fill="none" stroke="#000000" stroke-opacity="1" stroke-width="1" stroke-linecap="square" stroke-linejoin="bevel" transform="matrix(1,0,0,1,0,0)"
font-family="Sans Serif" font-size="9" font-weight="400" font-style="normal" 
>
</g>
</g>
</svg>
